<svg version="1.1" id="Layer_1" xmlns="http://www.w3.org/2000/svg" xmlns:xlink="http://www.w3.org/1999/xlink" x="0px" y="0px"
	 width="100%" viewBox="0 0 512 512" enable-background="new 0 0 512 512" xml:space="preserve">
<path fill="#000000" opacity="1.000000" stroke="none" 
	d="
M1.000000,187.000000 
	C1.000000,124.666664 1.000000,62.833332 1.000000,1.000000 
	C171.666672,1.000000 342.333344,1.000000 513.000000,1.000000 
	C513.000000,171.666672 513.000000,342.333344 513.000000,513.000000 
	C342.333344,513.000000 171.666672,513.000000 1.000000,513.000000 
	C1.000000,404.500000 1.000000,296.000000 1.000000,187.000000 
M93.121353,287.402344 
	C103.989372,273.533936 114.812279,259.629883 125.736679,245.806000 
	C139.909454,227.871597 154.210632,210.038605 168.368057,192.092163 
	C181.613052,175.302338 194.761963,158.436539 207.916321,141.575439 
	C217.126633,129.769760 226.237427,117.886368 235.467911,106.096588 
	C239.629272,100.781425 243.974030,95.609848 249.000153,89.433609 
	C249.000153,92.332443 249.000122,93.950508 249.000137,95.568581 
	C249.000473,121.555313 249.010834,147.542053 248.999115,173.528778 
	C248.974533,227.999802 248.938354,282.470825 248.122696,337.008118 
	C239.736649,339.065186 231.942154,342.249115 225.361496,348.101410 
	C213.163528,358.949341 208.035568,372.380585 208.878860,388.689117 
	C209.653519,403.670013 216.645248,414.935211 227.880630,423.938202 
	C237.493973,431.641510 248.790985,433.662354 260.905975,433.073486 
	C275.832153,432.347992 287.035492,425.264740 296.032410,413.904907 
	C303.746277,404.165070 305.653381,392.915497 305.058502,380.843384 
	C304.534454,370.209534 300.475952,361.184692 293.707123,353.215546 
	C286.154816,344.323883 276.334412,339.371613 265.013550,336.015045 
	C265.013550,254.201630 265.013550,172.388214 265.013550,90.574799 
	C272.121460,98.183754 278.163666,106.043968 284.310883,113.821220 
	C294.730652,127.003975 305.281921,140.083145 315.656403,153.301254 
	C325.917175,166.374512 335.949829,179.626938 346.224426,192.689178 
	C357.929749,207.570236 369.870239,222.266342 381.565308,237.155334 
	C394.841919,254.057800 407.959961,271.084839 420.842194,288.678558 
	C408.655853,301.645325 405.978821,317.518341 410.299835,333.682709 
	C417.345917,360.041229 439.986237,372.874969 466.231232,368.667969 
	C488.954102,365.025604 505.819672,343.674469 505.362793,320.069641 
	C504.979309,300.257446 490.631134,280.386078 472.264954,274.976288 
	C459.578064,271.239349 447.210236,272.359161 434.396729,276.872620 
	C431.262695,272.900360 428.115234,268.938599 424.997070,264.953949 
	C414.849609,251.986588 404.736481,238.992294 394.564636,226.044128 
	C386.411072,215.665024 378.180481,205.346512 370.003571,194.985703 
	C359.488525,181.662262 348.973236,168.338913 338.495544,154.986130 
	C330.639404,144.974228 322.863739,134.899216 315.013428,124.882721 
	C305.962982,113.334946 296.818146,101.860764 287.817566,90.274422 
	C283.449585,84.651573 279.317047,78.845840 276.000488,73.020531 
	C344.970093,73.013985 413.940277,72.862358 482.908600,73.158165 
	C493.188629,73.202248 505.952271,61.870094 505.091827,50.757923 
	C504.591736,44.299511 504.476929,37.718311 505.120026,31.285465 
	C506.161743,20.865711 492.824432,8.794125 482.904633,8.811839 
	C332.304810,9.080778 181.704239,9.071628 31.104279,8.839210 
	C20.764595,8.823253 7.999327,20.329556 8.900674,31.186729 
	C9.436367,37.639397 9.470909,44.215237 8.892217,50.660408 
	C7.941544,61.248512 20.393118,73.247482 31.542383,73.185692 
	C98.677406,72.813614 165.815536,72.999382 232.952621,73.006760 
	C234.948898,73.006973 236.945175,73.099274 238.953125,73.840157 
	C228.517349,87.169899 218.080887,100.499123 207.646011,113.829575 
	C199.216370,124.598343 190.802231,135.379272 182.356476,146.135376 
	C172.905319,158.171936 163.434036,170.192719 153.957245,182.209106 
	C143.568115,195.382309 133.143112,208.527237 122.770691,221.713577 
	C114.807304,231.837341 106.951843,242.046310 98.954018,252.142624 
	C92.313484,260.525513 85.535416,268.799408 78.066788,277.005524 
	C67.541634,272.469421 56.616978,271.573395 45.518803,274.028900 
	C12.492134,281.336090 -0.983612,319.572693 15.944405,346.902313 
	C31.893562,372.651611 66.405365,375.658051 87.185638,359.260651 
	C109.719734,341.479370 111.091141,308.158875 93.121353,287.402344 
M183.769241,498.945068 
	C184.601852,498.965302 185.445068,498.906860 186.265488,499.017487 
	C200.963730,500.998688 215.613159,504.109863 230.366684,504.721954 
	C249.573059,505.518799 268.903046,504.996490 288.101410,503.791748 
	C303.023041,502.855347 317.869415,500.287659 332.668823,497.938354 
	C353.840363,494.577484 373.854736,487.301208 393.188843,478.287140 
	C410.382080,470.271210 426.240295,460.013611 441.000336,446.768433 
	C441.000336,451.021698 440.934113,454.463318 441.015747,457.901398 
	C441.141266,463.190674 443.377563,465.063751 449.307953,465.000397 
	C454.716522,464.942627 456.948486,462.930847 456.979340,457.743347 
	C457.045807,446.580292 457.027252,435.416473 456.985229,424.253174 
	C456.970215,420.261566 453.911957,417.043518 450.026215,417.022247 
	C438.696472,416.960114 427.365723,416.937225 416.036346,417.027832 
	C410.748047,417.070099 408.929688,419.367249 408.999908,425.362976 
	C409.063629,430.801819 411.013824,432.896118 416.264771,432.986084 
	C420.339661,433.055939 424.416656,433.000061 430.020844,433.000061 
	C426.359192,435.997620 423.851166,438.001190 421.396515,440.068207 
	C404.710907,454.118835 385.515015,463.855804 365.102325,470.796082 
	C350.039673,475.917358 334.412445,479.596893 318.814636,482.855591 
	C306.569458,485.413910 294.024963,486.867371 281.537750,487.837158 
	C271.272125,488.634399 260.887024,488.258789 250.569931,487.930145 
	C239.053238,487.563324 227.497345,487.158295 216.061661,485.860718 
	C203.659103,484.453461 191.241104,482.599243 179.067627,479.876678 
	C153.099915,474.069244 128.394562,464.821808 106.112671,449.952515 
	C98.797974,445.071228 91.884148,439.589203 84.786995,434.381897 
	C85.062843,433.921204 85.338684,433.460480 85.614532,432.999756 
	C89.569191,432.999756 93.524429,433.042877 97.478371,432.989349 
	C103.011497,432.914490 104.982628,430.805603 104.999931,425.072052 
	C105.017517,419.244476 103.107437,417.050842 97.662979,417.019653 
	C86.499893,416.955688 75.336037,416.966705 64.172821,417.018311 
	C60.212288,417.036621 57.039833,420.156982 57.020332,424.075684 
	C56.963951,435.405487 56.933064,446.736298 57.030823,458.065521 
	C57.074718,463.152618 59.347210,464.997498 64.973198,465.000061 
	C70.575325,465.002625 72.832962,463.107971 72.979637,458.077393 
	C73.082993,454.532471 72.999626,450.982086 72.999626,446.892700 
	C103.987411,474.215271 142.727280,490.550964 183.769241,498.945068 
z"/>
<path fill="#C18678" opacity="1.000000" stroke="none" 
	d="
M238.941452,73.148636 
	C236.945175,73.099274 234.948898,73.006973 232.952621,73.006760 
	C165.815536,72.999382 98.677406,72.813614 31.542383,73.185692 
	C20.393118,73.247482 7.941544,61.248512 8.892217,50.660408 
	C9.470909,44.215237 9.436367,37.639397 8.900674,31.186729 
	C7.999327,20.329556 20.764595,8.823253 31.104279,8.839210 
	C181.704239,9.071628 332.304810,9.080778 482.904633,8.811839 
	C492.824432,8.794125 506.161743,20.865711 505.120026,31.285465 
	C504.476929,37.718311 504.591736,44.299511 505.091827,50.757923 
	C505.952271,61.870094 493.188629,73.202248 482.908600,73.158165 
	C413.940277,72.862358 344.970093,73.013985 275.069031,73.029892 
	C262.405518,73.075714 250.673477,73.112175 238.941452,73.148636 
z"/>
<path fill="#8895B1" opacity="1.000000" stroke="none" 
	d="
M238.947296,73.494400 
	C250.673477,73.112175 262.405518,73.075714 274.607727,73.081085 
	C279.317047,78.845840 283.449585,84.651573 287.817566,90.274422 
	C296.818146,101.860764 305.962982,113.334946 315.013428,124.882721 
	C322.863739,134.899216 330.639404,144.974228 338.495544,154.986130 
	C348.973236,168.338913 359.488525,181.662262 370.003571,194.985703 
	C378.180481,205.346512 386.411072,215.665024 394.564636,226.044128 
	C404.736481,238.992294 414.849609,251.986588 424.997070,264.953949 
	C428.115234,268.938599 431.262695,272.900360 434.616241,277.331543 
	C430.272827,281.212921 425.709869,284.635315 421.146942,288.057739 
	C407.959961,271.084839 394.841919,254.057800 381.565308,237.155334 
	C369.870239,222.266342 357.929749,207.570236 346.224426,192.689178 
	C335.949829,179.626938 325.917175,166.374512 315.656403,153.301254 
	C305.281921,140.083145 294.730652,127.003975 284.310883,113.821220 
	C278.163666,106.043968 272.121460,98.183754 265.013550,90.574799 
	C265.013550,172.388214 265.013550,254.201630 264.584778,336.553131 
	C259.073029,337.041412 253.989990,336.991638 248.906967,336.941864 
	C248.938354,282.470825 248.974533,227.999802 248.999115,173.528778 
	C249.010834,147.542053 249.000473,121.555313 249.000137,95.568581 
	C249.000122,93.950508 249.000153,92.332443 249.000153,89.433609 
	C243.974030,95.609848 239.629272,100.781425 235.467911,106.096588 
	C226.237427,117.886368 217.126633,129.769760 207.916321,141.575439 
	C194.761963,158.436539 181.613052,175.302338 168.368057,192.092163 
	C154.210632,210.038605 139.909454,227.871597 125.736679,245.806000 
	C114.812279,259.629883 103.989372,273.533936 92.656830,287.643219 
	C87.734299,284.296600 83.276291,280.709106 78.818268,277.121613 
	C85.535416,268.799408 92.313484,260.525513 98.954018,252.142624 
	C106.951843,242.046310 114.807304,231.837341 122.770691,221.713577 
	C133.143112,208.527237 143.568115,195.382309 153.957245,182.209106 
	C163.434036,170.192719 172.905319,158.171936 182.356476,146.135376 
	C190.802231,135.379272 199.216370,124.598343 207.646011,113.829575 
	C218.080887,100.499123 228.517349,87.169899 238.947296,73.494400 
z"/>
<path fill="#FFD064" opacity="1.000000" stroke="none" 
	d="
M183.389709,498.728180 
	C142.727280,490.550964 103.987411,474.215271 72.999626,446.892700 
	C72.999626,450.982086 73.082993,454.532471 72.979637,458.077393 
	C72.832962,463.107971 70.575325,465.002625 64.973198,465.000061 
	C59.347210,464.997498 57.074718,463.152618 57.030823,458.065521 
	C56.933064,446.736298 56.963951,435.405487 57.020332,424.075684 
	C57.039833,420.156982 60.212288,417.036621 64.172821,417.018311 
	C75.336037,416.966705 86.499893,416.955688 97.662979,417.019653 
	C103.107437,417.050842 105.017517,419.244476 104.999931,425.072052 
	C104.982628,430.805603 103.011497,432.914490 97.478371,432.989349 
	C93.524429,433.042877 89.569191,432.999756 85.614532,432.999756 
	C85.338684,433.460480 85.062843,433.921204 84.786995,434.381897 
	C91.884148,439.589203 98.797974,445.071228 106.112671,449.952515 
	C128.394562,464.821808 153.099915,474.069244 179.067627,479.876678 
	C191.241104,482.599243 203.659103,484.453461 216.061661,485.860718 
	C227.497345,487.158295 239.053238,487.563324 250.569931,487.930145 
	C260.887024,488.258789 271.272125,488.634399 281.537750,487.837158 
	C294.024963,486.867371 306.569458,485.413910 318.814636,482.855591 
	C334.412445,479.596893 350.039673,475.917358 365.102325,470.796082 
	C385.515015,463.855804 404.710907,454.118835 421.396515,440.068207 
	C423.851166,438.001190 426.359192,435.997620 430.020844,433.000061 
	C424.416656,433.000061 420.339661,433.055939 416.264771,432.986084 
	C411.013824,432.896118 409.063629,430.801819 408.999908,425.362976 
	C408.929688,419.367249 410.748047,417.070099 416.036346,417.027832 
	C427.365723,416.937225 438.696472,416.960114 450.026215,417.022247 
	C453.911957,417.043518 456.970215,420.261566 456.985229,424.253174 
	C457.027252,435.416473 457.045807,446.580292 456.979340,457.743347 
	C456.948486,462.930847 454.716522,464.942627 449.307953,465.000397 
	C443.377563,465.063751 441.141266,463.190674 441.015747,457.901398 
	C440.934113,454.463318 441.000336,451.021698 441.000336,446.768433 
	C426.240295,460.013611 410.382080,470.271210 393.188843,478.287140 
	C373.854736,487.301208 353.840363,494.577484 332.668823,497.938354 
	C317.869415,500.287659 303.023041,502.855347 288.101410,503.791748 
	C268.903046,504.996490 249.573059,505.518799 230.366684,504.721954 
	C215.613159,504.109863 200.963730,500.998688 186.265488,499.017487 
	C185.445068,498.906860 184.601852,498.965302 183.389709,498.728180 
z"/>
<path fill="#90D8F9" opacity="1.000000" stroke="none" 
	d="
M248.514832,336.974976 
	C253.989990,336.991638 259.073029,337.041412 264.624451,337.016663 
	C276.334412,339.371613 286.154816,344.323883 293.707123,353.215546 
	C300.475952,361.184692 304.534454,370.209534 305.058502,380.843384 
	C305.653381,392.915497 303.746277,404.165070 296.032410,413.904907 
	C287.035492,425.264740 275.832153,432.347992 260.905975,433.073486 
	C248.790985,433.662354 237.493973,431.641510 227.880630,423.938202 
	C216.645248,414.935211 209.653519,403.670013 208.878860,388.689117 
	C208.035568,372.380585 213.163528,358.949341 225.361496,348.101410 
	C231.942154,342.249115 239.736649,339.065186 248.514832,336.974976 
z"/>
<path fill="#90D8F9" opacity="1.000000" stroke="none" 
	d="
M78.442535,277.063568 
	C83.276291,280.709106 87.734299,284.296600 92.517761,287.962982 
	C111.091141,308.158875 109.719734,341.479370 87.185638,359.260651 
	C66.405365,375.658051 31.893562,372.651611 15.944405,346.902313 
	C-0.983612,319.572693 12.492134,281.336090 45.518803,274.028900 
	C56.616978,271.573395 67.541634,272.469421 78.442535,277.063568 
z"/>
<path fill="#90D8F9" opacity="1.000000" stroke="none" 
	d="
M420.994568,288.368164 
	C425.709869,284.635315 430.272827,281.212921 434.938354,277.474060 
	C447.210236,272.359161 459.578064,271.239349 472.264954,274.976288 
	C490.631134,280.386078 504.979309,300.257446 505.362793,320.069641 
	C505.819672,343.674469 488.954102,365.025604 466.231232,368.667969 
	C439.986237,372.874969 417.345917,360.041229 410.299835,333.682709 
	C405.978821,317.518341 408.655853,301.645325 420.994568,288.368164 
z"/>
</svg>